# xmcd
#
# Track frame offsets:
#	150
#	9360
#	20815
#	38532
#	48379
#	64036
#	88718
#	101136
#	122598
#	137751
#	149197
#	164753
#
# Disc length: 2380 seconds
#
# Revision: 0
# Processed by: cddbd v1.5.2PL0 Copyright (c) Steve Scherf et al.
# Submitted via: EZCDAudioConverter 4.0.5.1
#
DISCID=aa094a0c
DTITLE=Sonny Terry and Brownie McGhee - Folk Song of Sonny Terry and Brownie McGhe
DTITLE=e
DYEAR=1959
DGENRE=Blues
TTITLE0=I Love You Baby
TTITLE1=Corn Bread, Peas And Black Molasses
TTITLE2=That's How I Feel
TTITLE3=You'd Better Mind
TTITLE4=Treated Wrong
TTITLE5=Brownie's Blues
TTITLE6=Southern Train
TTITLE7=Just A Dream (On My Mind)
TTITLE8=Sonny's Blues
TTITLE9=Gone But Not Forgotten
TTITLE10=Change The Lock On The Door
TTITLE11=Climbing On Top Of The Hill
EXTD=
EXTT0=
EXTT1=
EXTT2=
EXTT3=
EXTT4=
EXTT5=
EXTT6=
EXTT7=
EXTT8=
EXTT9=
EXTT10=
EXTT11=
PLAYORDER=
